<?xml version="1.0" encoding="UTF-8" standalone="no"?>
<svg
   xmlns:dc="http://purl.org/dc/elements/1.1/"
   xmlns:cc="http://creativecommons.org/ns#"
   xmlns:rdf="http://www.w3.org/1999/02/22-rdf-syntax-ns#"
   xmlns:svg="http://www.w3.org/2000/svg"
   xmlns="http://www.w3.org/2000/svg"
   xmlns:sodipodi="http://sodipodi.sourceforge.net/DTD/sodipodi-0.dtd"
   xmlns:inkscape="http://www.inkscape.org/namespaces/inkscape"
   version="1.1"
   id="Capa_1"
   x="0px"
   y="0px"
   viewBox="0 0 496 496"
   style="enable-background:new 0 0 496 496;"
   xml:space="preserve"
   sodipodi:docname="automata.svg"
   inkscape:version="1.0.1 (3bc2e813f5, 2020-09-07)"><metadata
   id="metadata93"><rdf:RDF><cc:Work
       rdf:about=""><dc:format>image/svg+xml</dc:format><dc:type
         rdf:resource="http://purl.org/dc/dcmitype/StillImage" /><dc:title></dc:title></cc:Work></rdf:RDF></metadata><defs
   id="defs91" /><sodipodi:namedview
   pagecolor="#ffffff"
   bordercolor="#666666"
   borderopacity="1"
   objecttolerance="10"
   gridtolerance="10"
   guidetolerance="10"
   inkscape:pageopacity="0"
   inkscape:pageshadow="2"
   inkscape:window-width="1366"
   inkscape:window-height="704"
   id="namedview89"
   showgrid="false"
   inkscape:zoom="0.25841764"
   inkscape:cx="-40.909376"
   inkscape:cy="289.02821"
   inkscape:window-x="0"
   inkscape:window-y="30"
   inkscape:window-maximized="1"
   inkscape:current-layer="Capa_1" />
<g
   id="g56"
   style="fill:#ffffff">
	<g
   id="g54"
   style="fill:#ffffff">
		<g
   id="g52"
   style="fill:#ffffff">
			<path
   d="M496,302.248V193.752l-51.056-12.768c-3.336-9.792-7.496-19.48-12.36-28.84l-14.192,7.384     c5.16,9.904,9.432,20.184,12.704,30.56l1.344,4.264L480,206.248v83.504l-47.56,11.888l-1.344,4.264     c-3.28,10.368-7.552,20.656-12.704,30.56l-2.064,3.968l25.256,42.088l-59.048,59.048l-42.088-25.256l-3.968,2.064     c-9.904,5.16-20.184,9.432-30.56,12.704l-4.264,1.344L289.752,480h-83.504l-11.888-47.56l-4.264-1.344     c-10.368-3.28-20.656-7.552-30.56-12.704l-3.968-2.064l-42.088,25.256L50.016,378.12l-11.312,11.312l72.304,72.304l45.168-27.104     c8.104,4,16.424,7.464,24.824,10.328L193.752,496h108.496l12.768-51.056c8.4-2.864,16.72-6.328,24.824-10.328l45.168,27.104     l76.72-76.72l-27.104-45.168c4-8.104,7.464-16.424,10.328-24.824L496,302.248z"
   id="path2"
   style="fill:#ffffff" />
			<path
   d="M63.416,343.848l14.192-7.384c-5.16-9.904-9.432-20.184-12.704-30.56l-1.344-4.264L16,289.752v-83.504l47.56-11.888     l1.344-4.264c3.28-10.368,7.552-20.656,12.704-30.56l2.064-3.968L54.416,113.48l59.048-59.048l42.088,25.256l3.968-2.064     c9.904-5.16,20.184-9.432,30.56-12.704l4.264-1.344L206.248,16h83.504l11.888,47.56l4.264,1.344     c10.368,3.28,20.656,7.552,30.56,12.704l3.968,2.064l42.088-25.256l63.464,63.464l11.312-11.312l-72.304-72.304l-45.168,27.104     c-8.104-4-16.424-7.464-24.824-10.328L302.248,0H193.752l-12.768,51.056c-8.4,2.864-16.72,6.328-24.824,10.328L110.992,34.28     L34.272,111l27.104,45.168c-4,8.104-7.464,16.424-10.328,24.824L0,193.752v108.496l51.056,12.768     C54.392,324.808,58.544,334.488,63.416,343.848z"
   id="path4"
   style="fill:#ffffff" />
			<path
   d="M248,72c-97.048,0-176,78.952-176,176s78.952,176,176,176s176-78.952,176-176S345.048,72,248,72z M248,408     c-88.224,0-160-71.776-160-160S159.776,88,248,88s160,71.776,160,160S336.224,408,248,408z"
   id="path6"
   style="fill:#ffffff" />
			<rect
   x="240"
   y="32"
   width="16"
   height="16"
   id="rect8"
   style="fill:#ffffff" />
			<rect
   x="92.915"
   y="92.92"
   transform="matrix(0.7071 -0.7071 0.7071 0.7071 -41.804 100.9162)"
   width="16"
   height="16"
   id="rect10"
   style="fill:#ffffff" />
			<rect
   x="32"
   y="240"
   width="16"
   height="16"
   id="rect12"
   style="fill:#ffffff" />
			<rect
   x="92.887"
   y="387.052"
   transform="matrix(-0.7071 0.7071 -0.7071 -0.7071 451.5688 603.0585)"
   width="16"
   height="16"
   id="rect14"
   style="fill:#ffffff" />
			<rect
   x="240"
   y="448"
   width="16"
   height="16"
   id="rect16"
   style="fill:#ffffff" />
			<rect
   x="387.019"
   y="387.04"
   transform="matrix(-0.7071 0.7071 -0.7071 -0.7071 953.6754 395.0533)"
   width="16"
   height="16"
   id="rect18"
   style="fill:#ffffff" />
			<rect
   x="448"
   y="240"
   width="16"
   height="16"
   id="rect20"
   style="fill:#ffffff" />
			<rect
   x="387.047"
   y="92.948"
   transform="matrix(-0.7071 -0.7071 0.7071 -0.7071 603.0065 451.669)"
   width="16"
   height="16"
   id="rect22"
   style="fill:#ffffff" />
			<path
   d="M296,200h-96v96h96V200z M280,280h-64v-64h64V280z"
   id="path24"
   style="fill:#ffffff" />
			<path
   d="M328,168h-40v-24h-16v24h-16v-24h-16v24h-16v-24h-16v24h-40v40h-24v16h24v16h-24v16h24v16h-24v16h24v40h40v24h16v-24h16     v24h16v-24h16v24h16v-24h40v-40h24v-16h-24v-16h24v-16h-24v-16h24v-16h-24V168z M312,312H184V184h128V312z"
   id="path26"
   style="fill:#ffffff" />
			<rect
   x="208"
   y="112"
   width="16"
   height="16"
   id="rect28"
   style="fill:#ffffff" />
			<rect
   x="240"
   y="112"
   width="16"
   height="16"
   id="rect30"
   style="fill:#ffffff" />
			<rect
   x="272"
   y="112"
   width="16"
   height="16"
   id="rect32"
   style="fill:#ffffff" />
			<rect
   x="112"
   y="272"
   width="16"
   height="16"
   id="rect34"
   style="fill:#ffffff" />
			<rect
   x="112"
   y="240"
   width="16"
   height="16"
   id="rect36"
   style="fill:#ffffff" />
			<rect
   x="112"
   y="208"
   width="16"
   height="16"
   id="rect38"
   style="fill:#ffffff" />
			<rect
   x="272"
   y="368"
   width="16"
   height="16"
   id="rect40"
   style="fill:#ffffff" />
			<rect
   x="240"
   y="368"
   width="16"
   height="16"
   id="rect42"
   style="fill:#ffffff" />
			<rect
   x="208"
   y="368"
   width="16"
   height="16"
   id="rect44"
   style="fill:#ffffff" />
			<rect
   x="368"
   y="208"
   width="16"
   height="16"
   id="rect46"
   style="fill:#ffffff" />
			<rect
   x="368"
   y="240"
   width="16"
   height="16"
   id="rect48"
   style="fill:#ffffff" />
			<rect
   x="368"
   y="272"
   width="16"
   height="16"
   id="rect50"
   style="fill:#ffffff" />
		</g>
	</g>
</g>
<g
   id="g58">
</g>
<g
   id="g60">
</g>
<g
   id="g62">
</g>
<g
   id="g64">
</g>
<g
   id="g66">
</g>
<g
   id="g68">
</g>
<g
   id="g70">
</g>
<g
   id="g72">
</g>
<g
   id="g74">
</g>
<g
   id="g76">
</g>
<g
   id="g78">
</g>
<g
   id="g80">
</g>
<g
   id="g82">
</g>
<g
   id="g84">
</g>
<g
   id="g86">
</g>
</svg>
